<svg width="317" height="195" viewBox="0 0 317 195" fill="none" xmlns="http://www.w3.org/2000/svg">
<path d="M29.1437 34.1665C29.1437 33.8315 28.8644 33.5523 28.4734 33.5523H9.98474C9.59371 33.5523 9.31446 33.8315 9.31446 34.1665C9.31446 42.7092 18.9777 47.2877 30.0374 47.2877C44.0016 47.2877 51.3748 42.3184 51.3748 34.334C51.3748 25.7912 44.0016 20.7103 29.9815 20.7103C28.5292 20.7103 28.4176 19.7052 28.4176 19.3144C28.4176 18.5885 29.1437 17.9743 30.0374 17.9743C30.8752 17.9743 31.6014 18.4768 31.6014 19.2585C31.6014 19.7611 31.9366 20.0403 32.3834 20.0403H50.3136C50.7047 20.0403 50.9837 19.7611 50.9837 19.4261C50.9837 11.0508 41.2646 6.58398 30.3167 6.58398C19.3128 6.58398 9.03516 12.1675 9.03516 20.0403C9.03516 28.6388 17.693 32.6589 30.1491 32.7148C31.4338 32.7148 32.2717 33.329 32.2717 34.334C32.2717 35.0598 31.6014 35.674 30.7636 35.674C29.7581 35.674 29.1437 35.1715 29.1437 34.1665Z" fill="#E9D9FF"/>
<path d="M54.6493 6.58398C54.3698 6.58398 54.1465 6.80736 54.1465 7.0865V26.6846C54.1465 26.9638 54.3698 27.1871 54.6493 27.1871H64.8152V46.7852C64.8152 47.0644 65.0386 47.2877 65.3176 47.2877H83.4714C83.7504 47.2877 84.0298 47.0644 84.0298 46.7852V27.1871H94.1958C94.4752 27.1871 94.6986 26.9638 94.6986 26.6846V7.0865C94.6986 6.80736 94.4752 6.58398 94.1958 6.58398H54.6493Z" fill="#E9D9FF"/>
<path d="M126.094 6.91899C126.038 6.69567 125.814 6.58398 125.591 6.58398H107.829C107.549 6.58398 107.381 6.69567 107.27 6.91899L93.585 46.5619C93.4173 47.0086 93.6406 47.2877 94.0874 47.2877H112.409C112.8 47.2877 112.967 47.0644 113.079 46.7294L114.14 43.5468H119.167L120.229 46.7294C120.34 47.0644 120.508 47.2877 120.899 47.2877H139.164C139.611 47.2877 139.834 47.0086 139.667 46.5619L126.094 6.91899ZM118.385 41.2017H114.922L116.654 35.8415L118.385 41.2017Z" fill="#E9D9FF"/>
<path d="M143.351 6.58398C143.016 6.58398 142.793 6.75154 142.793 7.14237V46.7294C142.793 47.0644 143.016 47.2877 143.351 47.2877H161.784C162.119 47.2877 162.343 47.0644 162.343 46.7294V33.3848H163.907L169.493 46.7294C169.66 47.0644 169.772 47.2877 170.219 47.2877H189.154C189.545 47.2877 189.657 47.1202 189.433 46.6177L181.167 27.0196L189.433 7.25405C189.657 6.75154 189.545 6.58398 189.154 6.58398H170.274C169.828 6.58398 169.716 6.80736 169.548 7.14237L163.795 20.8778H162.343V7.14237C162.343 6.86318 162.119 6.58398 161.784 6.58398H143.351Z" fill="#E9D9FF"/>
<path d="M202.65 26.3496C208.236 26.3496 212.704 21.8828 212.704 16.3551C212.704 10.8275 208.236 6.58398 202.65 6.58398C197.12 6.58398 192.596 10.8275 192.596 16.3551C192.596 21.8828 197.12 26.3496 202.65 26.3496ZM193.434 27.5221C193.154 27.5221 192.875 27.8013 192.875 28.0805V46.7294C192.875 47.0644 193.154 47.2877 193.434 47.2877H211.866C212.145 47.2877 212.425 47.0644 212.425 46.7294V28.0805C212.425 27.8013 212.145 27.5221 211.866 27.5221H193.434Z" fill="#E9D9FF"/>
<path d="M235.824 26.7963C235.824 26.6846 235.936 26.6846 235.936 26.7963L238.505 46.7852C238.561 47.0086 238.729 47.2319 238.953 47.2877H257.273C257.553 47.2877 257.832 47.0644 257.832 46.7852V7.14237C257.832 6.80736 257.553 6.58398 257.273 6.58398H239.12C238.84 6.58398 238.617 6.80736 238.617 7.14237V26.6288C238.617 26.7405 238.505 26.7405 238.505 26.6288L235.992 7.0865C235.936 6.75154 235.713 6.58398 235.377 6.58398H217.112C216.833 6.58398 216.609 6.80736 216.609 7.14237V46.7852C216.609 47.0644 216.833 47.2877 217.112 47.2877H235.266C235.545 47.2877 235.824 47.0644 235.824 46.7852V26.7963Z" fill="#E9D9FF"/>
<path d="M284.44 27.8571C284.272 27.8571 284.105 27.913 283.993 28.0805C283.546 28.8063 282.876 29.1972 282.093 29.1972C280.809 29.1972 279.804 28.1921 279.804 26.908C279.804 25.6796 280.809 24.6745 282.093 24.6745C282.876 24.6745 283.49 25.0095 283.993 25.7354C284.105 25.9029 284.272 26.0146 284.44 26.0146H301.978C302.481 26.0146 302.593 25.8471 302.537 25.3445C301.699 14.6242 292.706 6.58398 282.093 6.58398C270.754 6.58398 261.482 15.6293 261.482 26.908C261.482 38.2424 270.754 47.2877 282.093 47.2877C288.238 47.2877 293.879 44.7193 297.622 40.3084H302.09C302.37 40.3084 302.593 40.0292 302.593 39.75V28.4155C302.593 28.1363 302.426 27.8571 302.146 27.8571H284.44Z" fill="#E9D9FF"/>
<path d="M82.0493 52.5032C81.9255 52.0089 81.4309 51.7617 80.9364 51.7617H41.6174C40.9992 51.7617 40.6282 52.0089 40.3809 52.5032L10.088 140.256C9.71706 141.245 10.2116 141.863 11.2008 141.863H51.7563C52.622 141.863 52.9926 141.369 53.2399 140.627L55.5891 133.582H66.7173L69.0665 140.627C69.3137 141.369 69.6849 141.863 70.55 141.863H110.982C111.971 141.863 112.466 141.245 112.095 140.256L82.0493 52.5032ZM64.9865 128.391H57.3204L61.1532 116.526L64.9865 128.391Z" fill="#E9D9FF"/>
<path d="M121.461 51.7617C120.596 51.7617 120.225 52.3794 120.225 53.1209V140.75C120.225 141.492 120.719 141.863 121.461 141.863H162.016C162.758 141.863 163.377 141.245 163.377 140.503V114.177H176.977C193.793 114.177 207.518 100.458 207.518 82.4133C207.518 65.6043 193.793 51.7617 176.977 51.7617H121.461ZM162.016 87.1099V79.4468H164.118C166.344 79.4468 168.075 81.1775 168.075 83.2786C168.075 85.5031 166.344 87.1099 164.118 87.1099H162.016Z" fill="#E9D9FF"/>
<path d="M215.521 51.7617C214.656 51.7617 214.285 52.3794 214.285 53.1209V140.75C214.285 141.492 214.78 141.863 215.521 141.863H256.077C256.819 141.863 257.437 141.245 257.437 140.503V114.177H271.038C287.854 114.177 301.578 100.458 301.578 82.4133C301.578 65.6043 287.854 51.7617 271.038 51.7617H215.521ZM256.077 87.1099V79.4468H258.179C260.405 79.4468 262.136 81.1775 262.136 83.2786C262.136 85.5031 260.405 87.1099 258.179 87.1099H256.077Z" fill="#E9D9FF"/>
<path d="M182.623 176.891L186.274 174.497H249.619L251.988 177.507V180.243L249.619 183.525H184.961L182.623 180.243V176.891Z" fill="#FFD850"/>
<path d="M250.85 181.838H183.549V184.763H250.85V181.838Z" fill="black"/>
<path d="M250.85 173.062H183.549V175.987H250.85V173.062Z" fill="black"/>
<path d="M253.776 175.987H250.85V181.837H253.776V175.987Z" fill="black"/>
<path d="M183.549 175.987H180.623V181.837H183.549V175.987Z" fill="black"/>
<path d="M163.992 176.891L160.341 174.497H96.9962L94.627 177.507V180.243L96.9962 183.525H161.654L163.992 180.243V176.891Z" fill="#FFD850"/>
<path d="M95.7649 181.838H163.066V184.763H95.7649V181.838Z" fill="black"/>
<path d="M95.7649 173.062H163.066V175.987H95.7649V173.062Z" fill="black"/>
<path d="M92.8375 175.987H95.7637V181.837H92.8375V175.987Z" fill="black"/>
<path d="M163.066 175.987H165.992V181.837H163.066V175.987Z" fill="black"/>
<path d="M98.4062 145.761L102.058 143.367H165.402L167.772 146.377V149.113L165.402 152.395H100.744L98.4062 149.113V145.761Z" fill="#FFD850"/>
<path d="M166.634 150.708H99.332V153.633H166.634V150.708Z" fill="black"/>
<path d="M166.634 141.933H99.332V144.858H166.634V141.933Z" fill="black"/>
<path d="M169.561 144.857H166.635V150.707H169.561V144.857Z" fill="black"/>
<path d="M99.3324 144.857H96.4062V150.707H99.3324V144.857Z" fill="black"/>
<path d="M166.918 166.625L163.266 164.23H99.9219L97.5527 167.24V169.976L99.9219 173.258H164.58L166.918 169.976V166.625Z" fill="#FFD850"/>
<path d="M98.6907 171.571H165.992V174.496H98.6907V171.571Z" fill="black"/>
<path d="M98.6907 162.797H165.992V165.722H98.6907V162.797Z" fill="black"/>
<path d="M95.7633 165.722H98.6895V171.572H95.7633V165.722Z" fill="black"/>
<path d="M165.992 165.722H168.918V171.572H165.992V165.722Z" fill="black"/>
<path d="M179.697 166.625L183.349 164.23H246.694L249.062 167.24V169.976L246.694 173.258H182.035L179.697 169.976V166.625Z" fill="#FFD850"/>
<path d="M247.925 171.571H180.623V174.496H247.925V171.571Z" fill="black"/>
<path d="M247.925 162.797H180.623V165.722H247.925V162.797Z" fill="black"/>
<path d="M250.85 165.722H247.924V171.572H250.85V165.722Z" fill="black"/>
<path d="M180.623 165.722H177.697V171.572H180.623V165.722Z" fill="black"/>
<path d="M161.135 156.027L157.483 153.633H94.1383L91.7695 156.643V159.378L94.1383 162.661H158.797L161.135 159.378V156.027Z" fill="#FFD850"/>
<path d="M92.9074 160.974H160.209V163.899H92.9074V160.974Z" fill="black"/>
<path d="M92.9074 152.198H160.209V155.123H92.9074V152.198Z" fill="black"/>
<path d="M89.982 155.123H92.9082V160.973H89.982V155.123Z" fill="black"/>
<path d="M160.209 155.123H163.135V160.973H160.209V155.123Z" fill="black"/>
<path d="M95.4805 135.496L99.1323 133.102H162.477L164.846 136.111V138.847L162.477 142.129H97.8185L95.4805 138.847V135.496Z" fill="#FFD850"/>
<path d="M163.708 140.442H96.4062V143.367H163.708V140.442Z" fill="black"/>
<path d="M163.708 131.667H96.4062V134.592H163.708V131.667Z" fill="black"/>
<path d="M166.635 134.592H163.709V140.442H166.635V134.592Z" fill="black"/>
<path d="M96.4066 134.592H93.4805V140.442H96.4066V134.592Z" fill="black"/>
<path d="M184.623 156.027L188.274 153.633H251.619L253.988 156.643V159.378L251.619 162.661H186.961L184.623 159.378V156.027Z" fill="#FFD850"/>
<path d="M252.85 160.974H185.549V163.899H252.85V160.974Z" fill="black"/>
<path d="M252.85 152.198H185.549V155.123H252.85V152.198Z" fill="black"/>
<path d="M255.776 155.123H252.85V160.973H255.776V155.123Z" fill="black"/>
<path d="M185.549 155.123H182.623V160.973H185.549V155.123Z" fill="black"/>
<path d="M96.3008 124.897L99.9521 122.503H163.297L165.666 125.513V128.249L163.297 131.531H98.6388L96.3008 128.249V124.897Z" fill="#FFD850"/>
<path d="M164.528 129.844H97.2266V132.769H164.528V129.844Z" fill="black"/>
<path d="M164.528 121.068H97.2266V123.993H164.528V121.068Z" fill="black"/>
<path d="M167.455 123.994H164.529V129.844H167.455V123.994Z" fill="black"/>
<path d="M97.2269 123.994H94.3008V129.844H97.2269V123.994Z" fill="black"/>
<path d="M93.1135 114.711L94.4883 118.854L78.1921 180.042L74.6729 181.557L72.0282 180.853L69.4648 177.72L86.0991 115.263L89.8733 113.849L93.1135 114.711Z" fill="#FFD850"/>
<path d="M70.7792 179.344L88.0938 114.333L85.2661 113.58L67.9516 178.591L70.7792 179.344Z" fill="black"/>
<path d="M79.2617 181.6L96.5762 116.59L93.7485 115.837L76.434 180.848L79.2617 181.6Z" fill="black"/>
<path d="M75.6808 183.675L76.4336 180.849L70.7783 179.344L70.0255 182.17L75.6808 183.675Z" fill="black"/>
<path d="M93.7491 115.838L94.502 113.012L88.8466 111.507L88.0938 114.333L93.7491 115.838Z" fill="black"/>
<path d="M259.628 183.3H175.568V186.225H259.628V183.3Z" fill="black"/>
<path d="M86.9853 183.3H172.643V186.225H86.9853V183.3Z" fill="black"/>
<path d="M83.4351 183.3H62.7559V186.225H83.4351V183.3Z" fill="black"/>
<path d="M143.869 45.6817L139.483 43.3039L119.541 42.6025L116.496 45.0153L113.377 45.3494L110.48 48.5416L107.287 51.6968L104.502 54.926L102.088 57.1533L100.974 61.4882L98.6348 63.9462L99.08 79.7958L101.16 82.32L101.754 86.106L104.873 88.853L106.841 91.5626L110.517 94.6806L112.485 97.3901L115.902 98.1696L118.724 100.211L139.11 99.9885L145.646 97.6875L148.431 94.4578L151.847 91.1916L154.632 87.8132L156.823 86.106L157.454 81.9632L159.683 79.8328L160.054 64.4132L157.64 61.4882L157.306 58.5632L154.075 54.5179L150.473 51.3253L148.431 48.356L146.277 46.8631L143.869 45.6817Z" fill="#FFD850"/>
<path d="M140.942 41.0127H117.533V44.0839H140.942V41.0127Z" fill="black"/>
<path d="M140.942 102.438H117.533V99.3662H140.942V102.438Z" fill="black"/>
<path d="M152.647 50.2266H149.721V53.2978H152.647V50.2266Z" fill="black"/>
<path d="M105.83 50.2266H108.756V53.2978H105.83V50.2266Z" fill="black"/>
<path d="M149.721 47.1553H146.795V50.2265H149.721V47.1553Z" fill="black"/>
<path d="M108.755 47.1553H111.682V50.2265H108.755V47.1553Z" fill="black"/>
<path d="M155.575 53.2979H152.648V56.3691H155.575V53.2979Z" fill="black"/>
<path d="M102.904 53.2979H105.83V56.3691H102.904V53.2979Z" fill="black"/>
<path d="M158.5 56.3691H155.574V62.5116H158.5V56.3691Z" fill="black"/>
<path d="M99.9762 56.3691H102.902V62.5116H99.9762V56.3691Z" fill="black"/>
<path d="M152.647 93.2246H149.721V90.1534H152.647V93.2246Z" fill="black"/>
<path d="M146.796 44.084H140.943V47.1552H146.796V44.084Z" fill="black"/>
<path d="M111.681 44.084H117.533V47.1552H111.681V44.084Z" fill="black"/>
<path d="M105.83 93.2246H108.756V90.1534H105.83V93.2246Z" fill="black"/>
<path d="M149.721 96.2949H146.795V93.2237H149.721V96.2949Z" fill="black"/>
<path d="M108.755 96.2949H111.682V93.2237H108.755V96.2949Z" fill="black"/>
<path d="M155.575 90.1533H152.648V87.0821H155.575V90.1533Z" fill="black"/>
<path d="M102.904 90.1533H105.83V87.0821H102.904V90.1533Z" fill="black"/>
<path d="M158.5 87.082H155.574V80.9395H158.5V87.082Z" fill="black"/>
<path d="M99.9762 87.082H102.902V80.9395H99.9762V87.082Z" fill="black"/>
<path d="M161.426 62.5117H158.5V80.9392H161.426V62.5117Z" fill="black"/>
<path d="M99.9769 62.5117H97.0508V80.9392H99.9769V62.5117Z" fill="black"/>
<path d="M146.796 99.3662H140.943V96.295H146.796V99.3662Z" fill="black"/>
<path d="M111.681 99.3662H117.533V96.295H111.681V99.3662Z" fill="black"/>
<path d="M148.884 83.1016H147.064V84.9194H148.884V83.1016Z" fill="#CF8934"/>
<path d="M147.065 69.0163H139.825V61.7681H141.632V59.9619H139.825V58.1436H119.902V59.9619H118.083V61.7681H116.276V63.5743H114.469V65.3922H112.651V67.1984H110.844V72.6286H112.651V70.8225H121.709V74.447H123.515V78.0594H125.335V81.6835H127.141V85.3075H128.96V70.8225H136.199V74.447H134.392V78.0594H132.574V81.6835H130.767V85.3075H128.96V87.1137H127.141V88.9321H128.96V90.7383H130.767V88.9321H132.574V87.1137H134.392V85.3075H136.199V83.5014H138.018V81.6835H139.825V79.8773H141.632V78.0594H143.451V76.2532H145.258V74.447H147.065V72.6286H148.884V67.1984H147.065V69.0163ZM136.199 69.0163H123.515V67.1984H121.709V59.9619H128.96V61.7681H130.767V63.5743H132.574V65.3922H134.392V67.1984H136.199V69.0163Z" fill="#CF8934"/>
<path d="M147.065 65.3916H145.258V67.1978H147.065V65.3916Z" fill="#CF8934"/>
<path d="M145.258 63.5742H143.451V65.3921H145.258V63.5742Z" fill="#CF8934"/>
<path d="M144.36 54.5308H142.541V56.337H144.36V58.1553H146.167V56.337H147.974V54.5308H146.167V52.7129H144.36V54.5308Z" fill="#CF8934"/>
<path d="M143.449 61.7676H141.631V63.5738H143.449V61.7676Z" fill="#CF8934"/>
<path d="M143.449 86.0068H141.643V87.813H143.449V86.0068Z" fill="#CF8934"/>
<path d="M139.824 50.2266H138.018V52.0328H139.824V50.2266Z" fill="#CF8934"/>
<path d="M128.959 61.7676H127.141V63.5738H128.959V61.7676Z" fill="#CF8934"/>
<path d="M133.67 53.6104H131.852V55.4282H133.67V53.6104Z" fill="#CF8934"/>
<path d="M127.141 85.3076H125.334V87.1138H127.141V85.3076Z" fill="#CF8934"/>
<path d="M127.141 63.5742H125.334V65.3921H127.141V63.5742Z" fill="#CF8934"/>
<path d="M125.335 83.501H123.516V85.3072H125.335V83.501Z" fill="#CF8934"/>
<path d="M125.335 65.3916H123.516V67.1978H125.335V65.3916Z" fill="#CF8934"/>
<path d="M122.268 87.4375H120.461V89.2559H122.268V87.4375Z" fill="#CF8934"/>
<path d="M123.514 81.6826H121.707V83.5005H123.514V81.6826Z" fill="#CF8934"/>
<path d="M121.707 79.877H119.9V81.6831H121.707V79.877Z" fill="#CF8934"/>
<path d="M119.901 78.0586H118.082V79.877H119.901V78.0586Z" fill="#CF8934"/>
<path d="M118.082 76.2529H116.275V78.0591H118.082V76.2529Z" fill="#CF8934"/>
<path d="M113.92 84.7217V86.5401H112.102V88.3462H113.92V90.1524H115.727V88.3462H117.534V86.5401H115.727V84.7217H113.92Z" fill="#CF8934"/>
<path d="M116.276 74.4463H114.469V76.2525H116.276V74.4463Z" fill="#CF8934"/>
<path d="M114.469 72.6279H112.65V74.4458H114.469V72.6279Z" fill="#CF8934"/>
<path d="M118.03 54.5195H116.223V56.3257H118.03V54.5195Z" fill="#CF8934"/>
<path d="M116.223 56.3252H114.416V58.1431H116.223V56.3252Z" fill="#CF8934"/>
<path d="M116.223 52.7012H114.416V54.5195H116.223V52.7012Z" fill="#CF8934"/>
<path d="M114.415 54.5195H112.596V56.3257H114.415V54.5195Z" fill="#CF8934"/>
<path d="M112.651 78.0586H110.844V79.877H112.651V78.0586Z" fill="#CF8934"/>
<path d="M224.297 151.531H212.917V148.688H210.072V154.375H227.141V148.688H224.297V151.531Z" fill="#231E2B"/>
<path d="M224.298 148.688H221.453V151.531H224.298V148.688Z" fill="#F5F38E"/>
<path d="M221.452 148.688H215.762V151.531H221.452V148.688Z" fill="#E2B436"/>
<path d="M215.763 148.688H212.918V151.531H215.763V148.688Z" fill="#F5F38E"/>
<path d="M218.606 145.844H215.762V148.688H221.452V143H218.606V145.844Z" fill="#F5F38E"/>
<path d="M218.606 143H215.762V145.844H218.606V143Z" fill="#E2B436"/>
<path d="M212.917 148.687H215.762V137.312H210.072V140.156H212.917V148.687Z" fill="#231E2B"/>
<path d="M221.453 137.312V148.687H224.298V140.156H227.143V137.312H221.453Z" fill="#231E2B"/>
<path d="M221.452 137.312H215.762V143H221.452V137.312Z" fill="#CF8934"/>
<path d="M232.832 134.469H227.143V137.313H232.832V134.469Z" fill="#231E2B"/>
<path d="M227.142 134.469H224.297V137.313H227.142V134.469Z" fill="#CF8934"/>
<path d="M221.453 134.468V131.625H224.298V120.25H207.229V131.625H210.073V134.468H212.918V137.312H224.298V134.468H221.453Z" fill="#E2B436"/>
<path d="M212.917 134.469H210.072V137.313H212.917V134.469Z" fill="#CF8934"/>
<path d="M210.073 134.469H204.383V137.313H210.073V134.469Z" fill="#231E2B"/>
<path d="M235.677 131.625H232.832V134.469H235.677V131.625Z" fill="#231E2B"/>
<path d="M232.832 131.625H227.143V134.469H232.832V131.625Z" fill="#CF8934"/>
<path d="M227.142 131.625H224.297V134.469H227.142V131.625Z" fill="#E2B436"/>
<path d="M224.298 131.625H221.453V134.469H224.298V131.625Z" fill="#F5F38E"/>
<path d="M210.073 131.625H204.383V134.469H210.073V131.625Z" fill="#CF8934"/>
<path d="M204.382 131.625H201.537V134.469H204.382V131.625Z" fill="#231E2B"/>
<path d="M235.677 128.781H232.832V131.625H235.677V128.781Z" fill="#CF8934"/>
<path d="M207.228 123.094H204.383V131.625H207.228V123.094Z" fill="#231E2B"/>
<path d="M204.382 128.781H201.537V131.625H204.382V128.781Z" fill="#CF8934"/>
<path d="M201.538 120.25H198.693V131.625H201.538V120.25Z" fill="#231E2B"/>
<path d="M238.521 120.25H235.676V131.625H238.521V120.25Z" fill="#231E2B"/>
<path d="M232.831 123.094H229.986V131.625H232.831V123.094Z" fill="#231E2B"/>
<path d="M204.382 123.094H201.537V128.781H204.382V123.094Z" fill="#E2B436"/>
<path d="M235.677 123.094H232.832V128.781H235.677V123.094Z" fill="#E2B436"/>
<path d="M235.677 120.25H232.832V123.094H235.677V120.25Z" fill="#F5F38E"/>
<path d="M232.831 120.25H229.986V123.094H232.831V120.25Z" fill="#CF8934"/>
<path d="M229.988 120.25H227.143V131.625H229.988V120.25Z" fill="#E2B436"/>
<path d="M207.228 120.25H204.383V123.094H207.228V120.25Z" fill="#CF8934"/>
<path d="M204.382 120.25H201.537V123.094H204.382V120.25Z" fill="#F5F38E"/>
<path d="M235.676 117.406H229.986V120.25H235.676V117.406Z" fill="#231E2B"/>
<path d="M224.298 120.25V131.625H227.142V120.25H229.988V117.406H207.229V120.25H224.298Z" fill="#F5F38E"/>
<path d="M207.227 117.406H201.537V120.25H207.227V117.406Z" fill="#231E2B"/>
<path d="M229.988 114.562H207.229V117.406H229.988V114.562Z" fill="#231E2B"/>
<path d="M92.6625 45.7656H89.7363V48.6906H92.6625V45.7656Z" fill="#231E2B"/>
<path d="M92.6625 42.8408H89.7363V45.7658H92.6625V42.8408Z" fill="#4FAB59"/>
<path d="M95.5883 36.9912H92.6621V45.7662H95.5883V36.9912Z" fill="#231E2B"/>
<path d="M92.6625 39.916H89.7363V42.841H92.6625V39.916Z" fill="#ACC756"/>
<path d="M89.7347 36.9912H86.8086V45.7662H89.7347V36.9912Z" fill="#231E2B"/>
<path d="M98.514 34.0664H95.5879V36.9914H98.514V34.0664Z" fill="#231E2B"/>
<path d="M95.5883 34.0664H92.6621V36.9914H95.5883V34.0664Z" fill="#4FAB59"/>
<path d="M89.7347 34.0664H86.8086V36.9914H89.7347V34.0664Z" fill="#4FAB59"/>
<path d="M86.809 34.0664H83.8828V36.9914H86.809V34.0664Z" fill="#231E2B"/>
<path d="M92.6625 28.2158H89.7363V39.9157H92.6625V28.2158Z" fill="#ACC756"/>
<path d="M89.7347 25.291H86.8086V34.066H89.7347V25.291Z" fill="#231E2B"/>
<path d="M95.5883 25.291H92.6621V34.066H95.5883V25.291Z" fill="#231E2B"/>
<path d="M92.6625 25.291H89.7363V28.216H92.6625V25.291Z" fill="#4FAB59"/>
<path d="M92.6625 22.3662H89.7363V25.2912H92.6625V22.3662Z" fill="#231E2B"/>
<path d="M244.373 105.29H241.447V108.215H244.373V105.29Z" fill="#231E2B"/>
<path d="M247.299 102.365H244.373V105.29H247.299V102.365Z" fill="#231E2B"/>
<path d="M244.373 102.365H241.447V105.29H244.373V102.365Z" fill="#4FAB59"/>
<path d="M241.448 102.365H238.521V105.29H241.448V102.365Z" fill="#231E2B"/>
<path d="M250.227 99.4395H247.301V102.364H250.227V99.4395Z" fill="#231E2B"/>
<path d="M247.299 99.4395H244.373V102.364H247.299V99.4395Z" fill="#4FAB59"/>
<path d="M241.448 99.4395H238.521V102.364H241.448V99.4395Z" fill="#4FAB59"/>
<path d="M238.522 99.4395H235.596V102.364H238.522V99.4395Z" fill="#231E2B"/>
<path d="M247.299 96.5146H244.373V99.4396H247.299V96.5146Z" fill="#231E2B"/>
<path d="M244.373 96.5146H241.447V99.4396H244.373V96.5146Z" fill="#4FAB59"/>
<path d="M244.373 99.4375H241.447V102.362H244.373V99.4375Z" fill="#ACC756"/>
<path d="M241.448 96.5146H238.521V99.4396H241.448V96.5146Z" fill="#231E2B"/>
<path d="M244.373 93.5898H241.447V96.5148H244.373V93.5898Z" fill="#231E2B"/>
<path d="M77.8734 73.3281H74.9473V76.2531H77.8734V73.3281Z" fill="#231E2B"/>
<path d="M80.8012 70.4023H77.875V73.3273H80.8012V70.4023Z" fill="#231E2B"/>
<path d="M77.8734 70.4023H74.9473V73.3273H77.8734V70.4023Z" fill="#4FAB59"/>
<path d="M74.9476 70.4023H72.0215V73.3273H74.9476V70.4023Z" fill="#231E2B"/>
<path d="M83.7269 67.4775H80.8008V70.4025H83.7269V67.4775Z" fill="#231E2B"/>
<path d="M80.8012 67.4775H77.875V70.4025H80.8012V67.4775Z" fill="#4FAB59"/>
<path d="M74.9476 67.4775H72.0215V70.4025H74.9476V67.4775Z" fill="#4FAB59"/>
<path d="M72.0219 67.4775H69.0957V70.4025H72.0219V67.4775Z" fill="#231E2B"/>
<path d="M80.8012 64.5527H77.875V67.4777H80.8012V64.5527Z" fill="#231E2B"/>
<path d="M77.8734 64.5527H74.9473V67.4777H77.8734V64.5527Z" fill="#4FAB59"/>
<path d="M77.8734 67.4756H74.9473V70.4006H77.8734V67.4756Z" fill="#ACC756"/>
<path d="M74.9476 64.5527H72.0215V67.4777H74.9476V64.5527Z" fill="#231E2B"/>
<path d="M77.8734 61.6279H74.9473V64.5529H77.8734V61.6279Z" fill="#231E2B"/>
<path d="M232.572 82.3877H230.33V89.1103H232.572V82.3877Z" fill="#231E2B"/>
<path d="M228.088 84.6279V86.869H234.813V84.6279H228.088Z" fill="#231E2B"/>
</svg>
